<?xml version="1.0" encoding="UTF-8"?>
<svg viewBox="0 0 640 480" xmlns="http://www.w3.org/2000/svg">
 <g fill="#3f3f3f">
  <path d="m385.19 49.423l4.6217 0.5135 4.6216 0.5135 4.1081 0.5135 3.5946 0.5135 3.0811 0.5135 3.0811 0.5135 2.5676 0.5135 2.5676 0.5135 2.5675 1.027 2.054 0.5135 1.5406 0.5135 2.0541 0.5135 1.5405 1.027 1.027 0.5135 1.5406 1.027 1.027 0.5135 1.027 1.027 1.5406 0.5135 2.054 1.5406 3.0811 2.054 3.0811 1.5405 2.5675 0.5135 2.5676 0.5135 3.081-1.027 2.5676-1.027 2.0541-2.054 1.027-2.5676 1.027-2.5676v-2.5676l-0.5135-3.0811-1.5405-2.0541-1.5406-2.054-2.5676-1.5406-1.5405-1.027-2.054-1.027-2.0541-1.5406-1.027-1.027-1.5406-0.5135-1.5405-1.027-1.5406-1.027-1.5405-0.5135-1.5406-1.027-2.0541-1.027-1.5405-0.5135-2.0541-1.027-2.054-0.5135-2.0541-1.027-2.054-0.5135-2.5676-0.5135-2.5676-0.5135-3.0811-1.027-2.5676-0.5135-3.5945-0.5135-3.0811-0.5135h-4.1081l-3.5946-0.5135-4.1081-0.5135h-7.1892l-2.5675 1.027-2.0541 1.5405-2.0541 2.054-1.027 2.5676-0.5135 2.5676v3.0811l1.027 2.5676 1.5406 2.054 2.0541 2.0541 2.5676 1.027 2.5675 0.5135z"/>
  <path d="m241.92 26.315h-4.1081l-4.1081 0.5135-3.5946 0.5135-3.5946 0.5135-3.5946 0.5135h-3.0811l-3.0811 0.5135-2.5676 1.027-2.5676 0.5135-2.5676 0.5135-2.054 0.5135-2.5676 1.027-2.054 0.5135-2.0541 1.027-1.5405 0.5135-2.0541 1.027-1.5405 1.027-1.5406 0.5135-1.5405 1.027-1.5405 1.027-1.027 1.027-1.5405 1.027-2.0541 1.027-1.5405 1.027-2.0541 1.027-2.054 1.5405-2.0541 2.0541-1.5405 2.054-0.5135 3.0811v2.5676l1.027 2.5676 1.5405 2.5676 2.054 2.0541 2.0541 1.027 3.0811 1.027 2.5676-0.5135 3.0811-0.5135 2.5676-1.5406 3.0811-2.054 2.5676-1.5406 1.027-0.5135 1.027-1.027 1.5406-0.5135 1.027-1.027 1.5405-0.5135 1.5406-0.5135 1.5405-1.027 2.0541-0.5135 2.054-0.5135 2.0541-1.027 2.5676-0.5135 2.5675-0.5135 3.0811-0.5135 3.5946-0.5135 3.5946-0.5135 4.1081-0.5135 4.1081-0.5135 4.6216-0.5135 3.0811-0.5135 2.0541-1.027 2.054-2.054 1.5406-2.0541 1.027-2.5676 0.5135-3.0811-1.027-2.5676-1.027-2.5676-2.0541-2.054-2.054-1.5405-2.5676-1.027h-3.0811z"/>
  <path d="m410.86 83.315l-2.5676 1.5405-2.054 1.5405-2.0541 1.5405-2.0541 1.027-2.054 0.5135-2.054 1.027-1.5406 0.5135-2.0541 0.5135h-2.0541l-2.5675 0.5135h-14.892l-3.5946-0.5135h-9.2433l-2.0541-0.5135h-36.972l-3.0811 0.5135h-10.784l-3.5946 0.5135h-29.27l-3.0811-0.5135h-6.1621l-2.5675-0.5135h-3.0811l-2.5676-0.5135h-2.5675l-2.5676-0.5135-2.5676-0.5135h-2.5675l-2.5676-0.5135-2.5676-0.5135h-2.054l-2.5676-0.5135-2.0541-0.5135-2.0541-0.5135-2.054-0.5135-2.5676-0.5135-2.0541-0.5135h-2.0541l-2.054-0.5135-1.5406-0.5135-2.0541-0.5135-1.5405-0.5135-2.054-0.5135-1.5405-0.5135-1.5406-0.5135-1.5405-0.5135-1.5405-0.5135-1.5405-0.5135-1.5405-0.5135-1.5406-0.5135-1.027-0.5135-3.0811-0.5135h-2.5676l-3.0811 0.5135-2.0541 1.5405-2.054 2.0541-1.027 2.5676-1.027 2.5676 0.5135 3.0811 0.5135 2.5676 1.5405 2.5676 2.0541 1.5405 2.5676 1.5405 1.027 0.5135 1.5405 0.5135 1.5405 0.5135 1.5406 0.5135 1.5405 0.5135 1.5405 0.5135 1.5406 0.5135 1.5405 0.5135 2.0541 0.5135 1.5405 0.5135 2.0541 0.5135 1.5406 0.5135 2.054 0.5135 2.0541 0.5135 1.5406 0.5135 2.0541 0.5135 2.5675 0.5135h2.0541l2.0541 0.5135 2.0541 0.5135 2.054 0.5135h2.5676l2.5676 0.5135 2.054 0.5135 2.5676 0.5135h2.5676l2.5675 0.5135 2.5676 0.5135h2.5676l2.5675 0.5135h3.0811l2.5676 0.5135h2.5675l3.0811 0.5135h8.7297l3.0811 0.5135h19.514l3.0811-0.5135h10.784l3.5946-0.5135h12.838l3.0811-0.5135h13.865l2.5676 0.5135h14.892l2.0541 0.5135h9.7567l2.5676 0.5135h10.27l2.054-0.5135h2.5676l2.0541-0.5135h2.0541l2.5675-0.5135 2.054-0.5135 2.0541-1.027 2.054-0.5135 2.0541-1.027 2.5676-0.5135 2.0541-1.5405 2.054-1.027 2.5676-1.5405 2.5676-1.5405 2.5675-2.0541 2.0541-2.054 1.5405-2.0541 0.5135-2.5676v-2.5676l-0.5135-3.0811-1.027-2.5676-2.0541-2.054-2.5675-1.5405-2.5676-0.5135h-2.5676l-2.5675 0.5135-2.5676 1.027z"/>
  <path d="m413.95 118.23l-1.5406 0.5135-1.5406 0.5135-1.027 0.5135-1.5405 0.5135-1.5406 0.5135-1.027 0.5135-1.5406 0.5135-1.027 0.5135-1.5406 0.5135h-1.027l-1.5406 0.5135h-1.027l-1.5406 0.5135-1.027 0.5135h-1.5406l-1.5406 0.5135h-1.5405l-2.054 0.5135h-1.5406l-2.0541 0.5135h-3.5945l-2.054 0.5135h-5.1351l-2.054 0.5135h-11.811l-3.5946 0.5135h-62.136l-3.0811-0.5135h-8.7297l-2.5675-0.5135h-5.6487l-2.5675-0.5135h-3.0811l-2.5676-0.5135h-2.5675l-2.5676-0.5135h-2.5676l-2.5675-0.5135-3.0811-0.5135h-2.5676l-2.5675-0.5135-2.0541-0.5135h-2.5676l-2.5675-0.5135-2.0541-0.5135h-2.5676l-2.0541-0.5135-2.5675-0.5135-2.0541-0.5135-2.5676-0.5135-2.054-0.5135-2.0541-0.5135-2.0541-0.5135-2.0541-0.5135-2.054-0.5135-2.0541-0.5135-2.0541-0.5135-2.054-0.5135-1.5405-0.5135-2.054-0.5135-1.5406-1.027-2.054-0.5135-1.5406-0.5135-3.0811-0.5135h-2.5676l-2.5676 0.5135-2.5676 1.5405-1.5405 2.054-1.5405 2.5676-0.5135 3.081v2.5676l0.5135 2.5676 1.5405 2.5675 2.0541 1.5406 2.5676 1.5405 1.5405 0.5135 2.054 1.027 2.0541 0.5135 1.5405 0.5135 2.0541 0.5135 2.054 0.5135 2.0541 0.5135 1.5405 0.5135 2.0541 0.5135 2.054 1.027 2.5676 0.5135 2.0541 0.5135 2.054 0.5135 2.0541 0.5135h2.0541l2.5675 0.5135 2.0541 0.5135 2.5676 0.5135 2.5675 0.5135 2.0541 0.5135 2.5676 0.5135h2.5676l2.5675 0.5135 2.0541 0.5135h2.5676l2.5675 0.5135 2.5676 0.5135h2.5676l2.5675 0.5135h3.0811l2.5676 0.5135h2.5675l2.5676 0.5135h3.0811l2.5675 0.5135h5.6487l2.5675 0.5135h8.7297l3.0811 0.5135h60.083l3.5946-0.5135h14.379l2.5675-0.5135h4.6217l2.5676-0.5135h3.5946l2.0541-0.5135h2.054l2.054-0.5135h1.5406l1.5406-0.5135h1.5406l1.5405-0.5135 2.0541-0.5135h1.027l1.5406-0.5135 1.5406-0.5135 1.5406-0.5135h1.5405l1.5405-0.5135 1.027-0.5135 1.5406-0.5135 1.5406-0.5135 1.5405-0.5135 1.5406-0.5135 1.5405-1.027 1.5406-0.5135 2.0541-0.5135 2.054-1.5405 2.0541-1.5406 1.5405-2.5676 1.027-2.5676v-2.5675l-0.5135-3.0811-1.5406-2.5676-2.054-2.054-2.0541-1.027-2.5675-1.027h-3.0811l-2.5675 0.5135z"/>
  <path d="m443.22 396.04l-1.027 1.027-0.5135 1.027-1.027 1.5406-1.027 0.5135-1.027 1.027-1.027 1.027-1.027 1.027-1.027 1.027-1.027 0.5135-1.5406 1.027-1.5406 0.5135-1.5406 1.027-1.5405 0.5135-1.5406 0.5135-1.5405 1.027-2.0541 0.5135-1.5405 1.027-2.0541 0.5135-2.054 0.5135-2.0541 0.5135-2.054 0.5135-2.0541 1.027-2.0541 0.5135-2.054 0.5135-2.054 0.5135-2.5676 0.5135-2.5676 0.5135-2.054 0.5135h-2.5676l-2.5676 0.5135-2.5675 0.5135-2.5676 0.5135-2.5676 0.5135h-2.5675l-2.5676 0.5135-2.5676 0.5135h-3.081l-2.5676 0.5135h-3.0811l-2.5675 0.5135-3.0811 0.5135h-3.0811l-3.0811 0.5135h-2.5676l-3.0811 0.5135h-3.0811l-3.0811 0.5135h-6.1621l-3.0811 0.5135h-3.081l-3.0811 0.5135h-6.1621l-3.0811 0.5135h-9.7566l-2.5676 0.5135h-14.379l-3.0811-0.5135h-5.1351l-3.0811-0.5135h-2.5675l-3.0811-0.5135-2.5676-0.5135h-3.081l-2.5676-0.5135-2.5676-0.5135-2.5675-0.5135-2.5676-0.5135-3.0811-0.5135-2.5675-0.5135-2.5676-0.5135-2.5676-0.5135-2.5675-0.5135-2.5676-0.5135-2.5676-0.5135-2.5675-0.5135-2.5676-0.5135-2.0541-1.027-2.5675-0.5135-2.0541-0.5135-2.5676-1.027-2.5675-0.5135-2.0541-0.5135-2.5676-1.027-2.0541-0.5135-2.054-1.027-2.0541-0.5135-2.5676-1.027-2.054-0.5135-2.054-0.5135-2.0541-1.027-2.054-0.5135-1.5405-0.5135-2.0541-1.027-2.054-0.5135-2.054-1.027-1.5405-0.5135-1.5406-0.5135-2.054-1.027-1.5405-0.5135-2.054-0.5135-1.5405-0.5135-1.5405-1.027-1.5406-0.5135-1.5405-0.5135-3.0811-1.5405-3.5946-1.027-3.0811-1.5406-2.5676-0.5135h-2.5676l-2.5676 1.027-2.5676 1.5406-2.054 2.054-1.5405 2.5676-0.5135 2.5676v3.081l1.027 2.0541 1.5406 2.5676 2.054 2.054 2.5676 1.5406 2.5676 1.027 3.0811 1.027 3.5946 1.5406 1.5405 0.5135 1.5406 0.5135 1.5405 0.5135 1.5405 1.027 1.5405 0.5135 1.5405 0.5135 2.054 0.5135 1.5406 1.027 2.054 0.5135 2.0541 0.5135 1.5405 1.027 2.054 0.5135 1.5405 1.027 2.054 0.5135 2.0541 0.5135 2.5676 1.027 2.054 0.5135 2.0541 1.027 2.054 0.5135 2.0541 1.027 2.054 0.5135 2.5676 0.5135 2.0541 1.027 2.5675 0.5135 2.0541 0.5135 2.5676 1.027 2.5675 0.5135 2.0541 0.5135 2.5676 1.027 2.5675 0.5135 2.5676 0.5135 2.5676 0.5135 2.5675 0.5135 2.5676 1.027 2.5676 0.5135 2.5675 0.5135 2.5676 0.5135 2.5676 0.5135 3.0811 0.5135 2.5676 0.5135 2.5676 0.5135h2.5675l3.0811 0.5135 2.5676 0.5135 3.0811 0.5135h2.5676l3.0811 0.5135h2.5675l3.0811 0.5135h5.6486l3.0811 0.5135h14.379l3.0811-0.5135h7.1892l3.5945-0.5135h7.1892l3.5946-0.5135h3.081l3.5946-0.5135h3.0811l3.5946-0.5135h3.0811l3.5946-0.5135h2.5676l3.5946-0.5135h3.0811l3.0811-0.5135h3.081l2.5676-0.5135 3.0811-0.5135h2.5675l3.0811-0.5135 2.5676-0.5135h2.5675l3.0811-0.5135 2.5675-0.5135 2.5676-0.5135 2.5676-0.5135h2.5675l2.0541-0.5135 2.5676-0.5135 2.5676-0.5135 2.5675-0.5135 2.054-0.5135 2.0541-0.5135 2.054-0.5135 2.5676-0.5135 2.054-0.5135 2.0541-1.027 2.054-0.5135 2.0541-0.5135 1.5405-0.5135 2.0541-0.5135 2.054-1.027 1.5406-0.5135 2.0541-0.5135 1.5405-1.027 1.5406-0.5135 1.5405-1.027 1.5406-1.027 1.5406-0.5135 1.5405-1.027 1.5406-1.027 1.5405-0.5135 1.5406-1.027 1.027-1.027 1.027-1.027 1.5405-0.5135 1.027-1.027 1.027-1.027 1.027-1.5406 1.027-1.027 1.027-1.027 1.027-1.027 1.027-1.027 1.027-1.5406 0.5135-1.027 1.027-1.027 1.027-2.5676 0.5135-3.0811-0.5135-2.5676-1.027-2.5676-1.5405-2.5675-2.5676-1.5406-2.5676-1.027-3.0811-0.5135-2.5676 0.5135-2.5676 1.027-2.054 1.5406-1.5405 2.054z"/>
  <path d="m167.97 161.37v209l1.027 2.5675 2.0541 2.054 2.054 2.0541 2.5676 1.027h5.6487l2.5676-1.027 2.054-2.0541 2.0541-2.054 1.027-2.5675v-212.08l-1.027-2.5676-2.0541-2.0541-2.054-2.054-2.5676-1.027-2.5676-0.5135-3.0811 0.5135-2.5676 1.027-2.054 2.054-2.0541 2.0541-1.027 2.5676v3.081z"/>
  <path d="m216.24 162.4v219.27l1.027 2.5676 2.054 2.0541 2.0541 2.054 2.5676 1.027h5.6486l2.5676-1.027 2.054-2.054 1.5406-2.0541 1.027-2.5676 0.5135-2.5675v-216.7l-0.5135-3.081-1.027-2.5676-1.5406-2.0541-2.054-1.5405-2.5676-1.027-3.0811-0.5135-2.5675 0.5135-2.5676 1.027-2.0541 1.5405-2.054 2.0541-1.027 2.5676v3.081z"/>
  <path d="m267.08 175.75v219.27l1.5406 2.5675 1.5405 2.0541 2.0541 2.054 2.5675 1.027h5.6487l2.5675-1.027 2.0541-2.054 2.054-2.0541 1.027-2.5675 0.5135-2.5676v-216.7l-0.5135-2.5676-1.027-2.5676-2.054-2.5675-2.0541-1.5406-2.5675-1.027-3.0811-0.5135-2.5676 0.5135-2.5675 1.027-2.0541 1.5406-1.5405 2.5675-1.5406 2.5676v2.5676z"/>
  <path d="m322.03 176.26v218.76l0.5135 2.5675 1.027 2.5676 1.5406 2.5676 2.5676 1.5405 2.054 1.027 3.0811 0.5135 3.0811-0.5135 2.5676-1.027 2.054-1.5405 1.5406-2.5676 1.027-2.5676 0.5135-2.5675v-218.76l-0.5135-2.5675-1.027-2.5676-1.5406-2.5676-2.054-1.5405-2.5676-1.027-3.0811-0.5135-3.0811 0.5135-2.054 1.027-2.5676 1.5405-1.5406 2.5676-1.027 2.5676-0.5135 2.5675z"/>
  <path d="m380.57 173.18v205.92l0.5135 3.0811 1.027 2.5676 1.5405 2.0541 2.054 2.054 2.5676 1.027h5.6486l2.5676-1.027 2.054-2.054 2.0541-2.0541 1.027-2.5676 0.5135-3.0811v-205.92l-0.5135-3.0811-1.027-2.5675-2.0541-2.0541-2.054-1.5405-2.5676-1.027-2.5676-0.5135-3.0811 0.5135-2.5676 1.027-2.054 1.5405-1.5405 2.0541-1.027 2.5675-0.5135 3.0811z"/>
  <path d="m433.97 165.48v204.89l0.5135 3.0811 1.027 2.5676 1.5406 2.0541 2.054 1.5406 2.5676 1.027 3.0811 0.5135 3.0811-0.5135 2.5676-1.027 2.054-1.5406 1.5405-2.0541 1.027-2.5676 0.5135-3.0811v-204.89l-0.5135-2.5676-1.027-2.5675-1.5405-2.5676-2.054-1.5405-2.5676-1.027-3.0811-0.5135-3.0811 0.5135-2.5676 1.027-2.054 1.5405-1.5406 2.5676-1.027 2.5675-0.5135 2.5676z"/>
  <path d="m367.73 57.126l-0.5135-2.5676v-2.5676l-0.5135-2.5676-0.5135-2.5676-0.5135-2.5676-1.027-2.5676-1.027-2.5676-1.5406-2.0541-1.027-2.5676-1.5406-2.054-1.5405-2.5676-2.0541-2.054-1.5405-2.0541-2.0541-1.5405-2.054-1.5405-2.0541-1.5405-2.054-1.5405-2.0541-1.5405-2.054-1.027-2.5676-1.5405-2.054-1.027-2.5675-0.5135-2.5676-1.027-2.5676-0.5135-2.054-1.027-3.0811-0.5135-2.5676-0.5135h-2.5675l-2.5676-0.5135h-5.1351l-2.5676 0.5135h-2.5676l-2.054 0.5135-2.5675 0.5135-2.0541 0.5135-2.5676 0.5135-2.054 1.027-2.5676 0.5135-2.0541 1.027-2.054 0.5135-2.054 1.027-1.5406 1.5405-2.0541 1.027-2.0541 1.027-2.054 1.5405-1.5405 1.5406-1.5406 1.5405-1.5406 1.5405-1.5405 1.5405-1.5406 1.5405-1.027 1.5405-1.5405 2.054-1.027 1.5406-1.027 2.0541-1.027 2.054-1.027 1.5406-1.027 2.054-0.5135 2.0541-0.5135 2.054-0.5135 2.0541-0.5135 2.054v4.6217l-0.5135 2.054 0.5135 3.0811 1.027 2.5676 1.5406 2.054 2.054 1.5405 3.0811 1.027 2.5676 0.5135 3.0811-0.5135 2.0541-1.027 2.5676-1.5405 1.5405-2.054 1.027-2.5676 0.5135-3.0811 0.5135-3.5946 0.5135-3.0811 1.5406-3.0811 1.027-2.5676 2.054-2.054 1.5405-1.5406 1.5406-2.054 2.0541-1.5406 2.5676-1.027 2.5675-1.5406 2.0541-1.027 2.5676-1.027 2.5675-0.5135 3.0811-0.5135 2.5676-0.5135h5.6486l3.0811 0.5135 2.5676 0.5135 2.5676 0.5135 3.0811 1.027 2.0541 1.027 2.5676 1.5406 2.0541 1.027 2.054 1.5406 2.054 2.054 1.5406 1.5406 1.5406 2.054 1.5405 2.5676 1.027 3.0811 1.027 3.0811 0.5135 3.5946v3.0811l1.5405 2.5676 1.5406 2.054 2.0541 1.5405 2.5675 1.027 2.5676 0.5135 3.0811-0.5135 2.5676-1.027 2.0541-1.5405 2.054-2.054 1.027-2.5676 0.5135-3.0811z"/>
  <path d="m171.05 132.61l0.5135-54.946v-3.0811l-1.027-2.5676-2.054-2.0541-1.5406-1.5405-2.5676-1.5405h-6.1622l-2.5676 1.027-2.0541 1.5405-1.5405 2.5676-1.027 2.5676-0.5135 2.5676-0.5135 54.946v3.0811l1.027 2.5675 2.0541 2.0541 2.054 1.5406 2.5676 1.5405h5.6487l2.5676-1.027 2.0541-2.0541 1.5405-2.0541 1.027-2.054 0.5135-3.0811z"/>
  <path d="m473 136.72v-51.865l-0.5135-3.0811-1.027-2.5676-1.5405-2.0541-2.054-1.5405-2.5676-1.027-3.0811-0.5135-2.5675 0.5135-2.5676 1.027-2.5676 1.5405-1.5405 2.0541-1.027 2.5676-0.5135 3.0811v51.865l0.5135 3.081 1.027 2.5676 1.5405 2.0541 2.5676 1.5405 2.5676 1.027 2.5675 0.5135 3.0811-0.5135 2.5676-1.027 2.054-1.5405 1.5405-2.0541 1.027-2.5676 0.5135-3.081z"/>
 </g>
</svg>
